<svg version="1.2" xmlns="http://www.w3.org/2000/svg" viewBox="0 0 18 19" width="18" height="19"><style>.a{fill:#fd8300}</style><path class="a" d="m16.6 11.2q0.9 1.2 0.9 2.7 0 1.1-0.6 2.2-0.6 1-1.6 1.6-1 0.6-2.2 0.5-1.5 0-2.6-0.8-0.9 0.1-1.8 0.1-2.1 0-4-1.1-1.8-1-2.9-2.9-1.1-1.8-1.1-4 0-0.8 0.2-1.7-0.9-1.2-0.9-2.7 0-1.1 0.6-2.2 0.6-1 1.6-1.6 1-0.6 2.2-0.6 1.5 0 2.6 0.9 0.9-0.1 1.7-0.1 2.2 0 4.1 1.1 1.8 1 2.9 2.9 1.1 1.8 1.1 4 0 0.8-0.2 1.7zm-7.6 3.6q1.7 0 3-0.8 1.4-1 1.4-2.6 0-1.3-1.2-2.1-0.8-0.6-2.4-0.9l-0.6-0.2q-1.2-0.3-1.6-0.4-0.5-0.3-0.5-0.7 0-0.9 1.6-0.9 0.7 0 1.2 0.3 0.3 0.1 0.7 0.5 0.3 0.3 0.5 0.4 0.3 0.1 0.6 0.1 0.5 0 0.9-0.3 0.3-0.4 0.3-0.9 0-1-1.4-1.6-1.3-0.6-3-0.6-1.7 0-2.8 0.7-1.4 0.9-1.4 2.5 0 1.1 0.5 1.7 0.5 0.6 1.4 1 0.6 0.2 2 0.5l0.8 0.2q0.9 0.2 1.1 0.4 0.4 0.2 0.4 0.7 0 0.4-0.4 0.7-0.5 0.3-1.3 0.3-0.7 0-1.3-0.3-0.4-0.2-0.9-0.7-0.3-0.4-0.5-0.5-0.3-0.2-0.7-0.2-0.5 0-0.8 0.3-0.3 0.3-0.3 0.8 0 0.7 0.6 1.3 0.6 0.6 1.7 0.9 1.1 0.4 2.4 0.4z"/></svg>