<svg version="1.2" xmlns="http://www.w3.org/2000/svg" viewBox="0 0 18 15" width="18" height="15"><style>.a{fill:#fff}</style><path class="a" d="m16.1 3.6q1.1-0.8 1.9-1.9-1.1 0.4-2.1 0.6 1.2-0.8 1.6-2.1-1.1 0.7-2.3 0.9-0.6-0.5-1.3-0.8-0.6-0.4-1.5-0.4-0.9 0-1.8 0.5-0.8 0.5-1.3 1.4-0.5 0.8-0.5 1.8 0 0.5 0.1 0.9-2.3-0.1-4.3-1.2-2-1-3.3-2.7-0.6 0.9-0.6 1.9 0 0.9 0.5 1.7 0.5 0.8 1.2 1.4-0.9-0.1-1.7-0.5 0 1.3 0.9 2.4 0.8 1 2.1 1.3-0.5 0.1-1 0.1-0.3 0-0.7-0.1 0.4 1.1 1.3 1.8 1 0.8 2.2 0.8-2.1 1.5-4.6 1.5-0.5 0-0.9 0 2.6 1.7 5.7 1.7 3.2 0 5.7-1.7 2.3-1.5 3.5-4 1.3-2.3 1.3-4.8 0-0.4-0.1-0.5z"/></svg>